<svg xmlns="http://www.w3.org/2000/svg" xmlns:svgjs="http://svgjs.com/svgjs" xmlns:xlink="http://www.w3.org/1999/xlink" width="288" height="288"><svg xmlns="http://www.w3.org/2000/svg" width="288" height="288" version="1.0" viewBox="0 0 494 505"><path fill="#fff274" d="M3474 4123 c-92 -98 -199 -212 -238 -253 -39 -41 -147 -155 -239-252 l-169 -178 -1261 -2 -1262 -3 -59 -24 c-71 -29 -149 -98 -181 -161 -48
-95 -48 -104 -42 -1189 5 -1012 5 -1016 27 -1074 38 -101 122 -186 218 -219
42 -15 1039 -17 3182 -8 l1195 5 57 23 c112 45 197 156 217 282 10 61 6 1906
-4 2048 -9 127 -91 244 -209 299 l-61 28 -547 3 c-302 2 -548 5 -548 6 0 2 25
158 56 347 30 189 61 379 68 422 13 77 12 77 -10 77 -15 0 -70 -51 -190 -177z
m132 25 c-5 -23 -15 -84 -81 -493 -19 -121 -38 -230 -40 -242 l-5 -23 568 0
c648 0 625 3 717 -82 39 -35 60 -64 75 -104 20 -55 20 -72 23 -1107 l2 -1052
-22 -47 c-31 -68 -99 -131 -169 -158 l-59 -22 -2142 -5 c-2004 -6 -2145 -5
-2187 11 -102 39 -168 113 -193 216 -10 43 -13 273 -13 1080 l0 1025 26 55
c41 90 106 146 194 168 40 10 1130 20 2295 22 l270 1 104 112 c132 141 361
385 467 497 44 47 98 104 119 128 42 47 58 53 51 20z" class="color000 svgShape" transform="matrix(.1 0 0 -.1 0 505)"/></svg></svg>